<svg viewBox="0 -4 29 29" width="1em" height="1em" xmlns="http://www.w3.org/2000/svg">
	<path
		d="M26 8.184l-.022-.09-.016-.047c-.013-.027-.022-.051-.034-.078 0-.016-.012-.031-.021-.048l-.039-.07-.029-.046-.051-.063-.046-.043-.069-.047-.05-.031-.063-.043-.047-.039-.017-.019L13.626.191a1.163 1.163 0 00-.617-.175c-.22 0-.436.06-.618.175L.428 7.551l-.064.051-.042.039-.055.058-.039.043-.055.063c-.02.014-.033.027-.033.042l-.056.063-.02.059c-.022.011-.022.039-.035.07l-.007.05C0 8.12 0 8.147 0 8.18v7.497c0 .047.004.09.013.136l.009.047c.004.029.011.058.02.086l.017.047c.012.028.017.055.03.078l.025.047c0 .012.013.043.03.063l.033.04c.017.01.033.039.051.057l.03.043.042.039c.013.012.013.032.035.032l.062.04.047.03.009.016 11.887 7.328c.178.12.406.164.618.164.207 0 .419-.063.613-.18l12.091-7.406.054-.06.039-.047.042-.057.035-.051.03-.07.016-.051.033-.078.017-.043.034-.082v-7.5c0-.047 0-.093-.022-.14l-.012-.043.046.004.026.019zm-12.987 6.277l-3.958-2.438 3.958-2.445 3.952 2.442-3.952 2.44zm-1.121-6.672l-4.846 2.988-3.914-2.414 8.76-5.39v4.816zm-6.86 4.231l-2.798 1.73v-3.449l2.798 1.726v-.007zm2.014 1.25l4.846 2.992v4.82l-8.76-5.391 3.919-2.421h-.005zm7.08 2.992l4.85-2.981 3.913 2.418-8.764 5.391v-4.828zm6.86-4.231l2.797-1.72v3.454l-2.798-1.73v-.004zm-2.01-1.242L14.13 7.8V2.968l8.76 5.39-3.914 2.415v.016z"
		fill="currentColor" /></svg>