<svg viewBox="0 0 28 28" width="1em" height="1em" xmlns="http://www.w3.org/2000/svg">
	<path
		d="M20.977 26.583c-.343 0-.671-.127-.914-.354a1.17 1.17 0 01-.378-.854v-3.142a2.44 2.44 0 00-.121-1.072 2.564 2.564 0 00-.576-.934 1.182 1.182 0 01-.317-.582 1.135 1.135 0 01.053-.651c.081-.209.222-.392.408-.53a1.34 1.34 0 01.643-.254c3.152-.35 6.058-1.293 6.058-6.405a4.614 4.614 0 00-.865-2.682 3.15 3.15 0 01-.53-2.49 4.196 4.196 0 000-1.703c-.967.306-1.877.75-2.7 1.317a1.378 1.378 0 01-1.085.181 13.982 13.982 0 00-7.13 0 1.378 1.378 0 01-1.084-.18A9.813 9.813 0 009.713 4.93a3.985 3.985 0 000 1.704c.17.873-.03 1.774-.555 2.513a4.694 4.694 0 00-.865 2.695c0 4.7 2.428 5.957 6.07 6.392.239.027.464.117.651.258.187.14.329.327.409.54.075.205.09.426.041.638-.047.213-.156.41-.313.57a2.464 2.464 0 00-.566.873 2.34 2.34 0 00-.144 1.012v3.25c0 .32-.136.628-.379.854-.242.227-.57.354-.913.354-.342 0-.67-.127-.913-.354a1.17 1.17 0 01-.379-.854v-.689a8.244 8.244 0 01-3.742-.463 7.754 7.754 0 01-3.065-2.062c-.423-.44-.932-.8-1.498-1.064-.164-.04-.319-.109-.455-.204a1.242 1.242 0 01-.336-.352 1.135 1.135 0 01-.139-.917c.042-.155.117-.3.219-.426a1.27 1.27 0 01.376-.315 1.381 1.381 0 01.98-.13 6.403 6.403 0 012.584 1.644c1.292 1.208 2.584 2.271 5.038 1.836a4.423 4.423 0 01.297-1.909c-2.661-.628-6.458-2.417-6.458-8.458a6.92 6.92 0 011.291-4.024.974.974 0 00.168-.75 6.465 6.465 0 01.426-3.878c.074-.163.184-.31.325-.43.14-.118.308-.207.49-.259.438-.12 2.014-.362 4.998 1.45a16.761 16.761 0 017.35 0c2.983-1.812 4.559-1.583 4.985-1.45.182.052.349.14.49.26.14.119.25.266.324.43a6.488 6.488 0 01.426 3.89.848.848 0 00.142.689 6.919 6.919 0 011.292 4.036c0 6.126-3.772 7.902-6.458 8.458.236.648.333 1.334.284 2.018v3.069c0 .308-.125.605-.35.83a1.33 1.33 0 01-.864.378z"
		fill="currentColor" /></svg>