<svg viewBox="0 2 25 25" width="1em" height="1em" xmlns="http://www.w3.org/2000/svg">
	<path
		d="M18.938 10.5a7.287 7.287 0 00-7.313 7.275v7.35a1.125 1.125 0 001.125 1.125h2.625a1.125 1.125 0 001.125-1.125v-7.35a2.426 2.426 0 012.688-2.412 2.5 2.5 0 012.187 2.5v7.262A1.125 1.125 0 0022.5 26.25h2.625a1.125 1.125 0 001.125-1.125v-7.35a7.287 7.287 0 00-7.313-7.275zM8.25 11.625H4.875c-.621 0-1.125.504-1.125 1.125v12.375c0 .621.504 1.125 1.125 1.125H8.25c.621 0 1.125-.504 1.125-1.125V12.75c0-.621-.504-1.125-1.125-1.125zm-1.687-2.25a2.813 2.813 0 100-5.625 2.813 2.813 0 000 5.625z"
		fill="currentColor" /></svg>